{"title":"Unreal Estate - S01E01 - Best Beach Houses","uid":15959984,"size":1096958930,"categoryP":"video","categoryS":"tv_shows","magnet":"?xt=urn:btih:e1fa759a14d88601e30cdf754e5d99d6ec008b66&amp;dn=Unreal+Estate+-+S01E01+-+Best+Beach+Houses&amp;tr=udp%3A%2F%2Ftracker.leechers-paradise.org%3A6969&amp;tr=udp%3A%2F%2Fzer0day.ch%3A1337&amp;tr=udp%3A%2F%2Fopen.demonii.com%3A1337&amp;tr=udp%3A%2F%2Ftracker.coppersurfer.tk%3A6969&amp;tr=udp%3A%2F%2Fexodus.desync.com%3A6969","seeders":6,"leechers":5,"uploader":"Bullrout","files":1,"time":1475654414,"description":"Unreal Estate - S01E01 - Best Beach Houses\r\n\r\nKate and Cam are on a mission to find the best beach houses in Australia. Cam finds a house that love built with million-dollar views in Noosa, while Kate discovers a palatial paradise on the Great Barrier Reef.\r\n\r\nComplete name : Unreal Estate - S01E01 - Best Beach Houses.mkv\r\nFormat : Matroska\r\nFormat version : Version 4 / Version 2\r\nFile size : 1.02 GiB\r\nDuration : 44 min 25 s\r\nOverall bit rate mode : Variable\r\nOverall bit rate : 3 292 kb/s\r\nEncoded date : UTC 2016-09-27 18:43:29\r\nWriting application : mkvmerge v9.4.2 ('So High') 64bit\r\nWriting library : libebml v1.3.4 + libmatroska v1.4.5\r\n\r\nVideo\r\nID : 2\r\nFormat : AVC\r\nFormat/Info : Advanced Video Codec\r\nFormat profile :   \r\nFormat settings, CABAC : Yes\r\nFormat settings, ReFrames : 3 frames\r\nCodec ID : V_MPEG4/ISO/AVC\r\nDuration : 44 min 25 s\r\nBit rate mode : Variable\r\nBit rate : 2 906 kb/s\r\nMaximum bit rate : 3 000 kb/s\r\nWidth : 1 280 pixels\r\nHeight : 720 pixels\r\nDisplay aspect ratio : 16:9\r\nFrame rate mode : Constant\r\nFrame rate : 25.000 FPS\r\nStandard : PAL\r\nColor space : YUV\r\nChroma subsampling : 4:2:0\r\nBit depth : 8 bits\r\nScan type : Progressive\r\nBits/(Pixel*Frame) : 0.126\r\nStream size : 924 MiB (88%)\r\nWriting library : x264 core 112\r\nDefault : Yes\r\nForced : No\r\nColor range : Limited\r\nColor primaries : BT.709\r\nTransfer characteristics : BT.709\r\nMatrix coefficients : BT.709\r\n\r\nAudio\r\nID : 1\r\nFormat : AC-3\r\nFormat/Info : Audio Coding 3\r\nMode extension : CM (complete main)\r\nFormat settings, Endianness : Big\r\nCodec ID : A_AC3\r\nDuration : 44 min 25 s\r\nBit rate mode : Constant\r\nBit rate : 384 kb/s\r\nChannel(s) : 6 channels\r\nChannel positions : Front: L C R, Side: L R, LFE\r\nSampling rate : 48.0 kHz\r\nFrame rate : 31.250 FPS (1536 spf)\r\nCompression mode : Lossy\r\nStream size : 122 MiB (12%)\r\nDefault : Yes\r\nForced : No","torrent":{"xt":"urn:btih:e1fa759a14d88601e30cdf754e5d99d6ec008b66","amp;dn":"Unreal+Estate+-+S01E01+-+Best+Beach+Houses","amp;tr":["udp%3A%2F%2Ftracker.leechers-paradise.org%3A6969","udp%3A%2F%2Fzer0day.ch%3A1337","udp%3A%2F%2Fopen.demonii.com%3A1337","udp%3A%2F%2Ftracker.coppersurfer.tk%3A6969","udp%3A%2F%2Fexodus.desync.com%3A6969"],"infoHash":"e1fa759a14d88601e30cdf754e5d99d6ec008b66","infoHashBuffer":{"type":"Buffer","data":[225,250,117,154,20,216,134,1,227,12,223,117,78,93,153,214,236,0,139,102]},"announce":[],"urlList":[]}}